<?xml version="1.0" standalone="no"?>
<!DOCTYPE svg PUBLIC "-//W3C//DTD SVG 20010904//EN"
 "http://www.w3.org/TR/2001/REC-SVG-20010904/DTD/svg10.dtd">
<svg version="1.0" xmlns="http://www.w3.org/2000/svg"
 width="334.000000pt" height="405.000000pt" viewBox="0 0 334.000000 405.000000"
 preserveAspectRatio="xMidYMid meet">

<g transform="translate(0.000000,405.000000) scale(0.100000,-0.100000)"
fill="#000000" stroke="none">
<path d="M2655 4020 c-27 -5 -131 -22 -230 -39 -99 -16 -202 -33 -230 -36 -27
-4 -70 -11 -95 -17 -25 -5 -61 -11 -80 -14 -62 -7 -173 -24 -270 -39 -52 -8
-124 -19 -160 -25 -36 -5 -94 -14 -130 -19 -186 -30 -266 -41 -292 -41 -15 0
-28 -4 -28 -9 0 -4 -12 -6 -27 -4 -22 4 -25 2 -13 -6 9 -7 10 -11 3 -11 -6 0
-15 5 -18 11 -5 7 -15 4 -32 -6 -14 -10 -22 -12 -19 -6 4 6 0 11 -9 11 -9 0
-14 -3 -12 -7 3 -5 -14 -8 -36 -8 -23 0 -58 -4 -77 -7 -19 -4 -84 -14 -145
-23 -60 -8 -135 -20 -165 -25 -30 -5 -73 -12 -95 -15 -99 -14 -162 -24 -180
-28 -11 -3 -68 -10 -127 -17 -60 -7 -108 -16 -108 -20 0 -4 -10 -6 -22 -6 -21
1 -23 -4 -26 -52 -2 -31 1 -51 6 -48 5 3 7 -5 5 -17 -4 -20 9 -101 53 -347 9
-47 16 -94 15 -105 0 -11 6 -56 14 -100 8 -44 17 -102 20 -130 6 -56 22 -165
37 -240 5 -27 9 -62 8 -77 0 -16 3 -28 7 -28 5 0 8 -17 8 -37 1 -21 4 -58 8
-83 39 -232 50 -302 53 -344 2 -28 8 -52 12 -55 4 -4 7 -22 8 -41 0 -19 3 -51
7 -70 7 -39 32 -206 48 -320 6 -41 13 -79 16 -84 3 -5 7 -33 8 -63 1 -32 7
-58 14 -63 10 -5 10 -9 2 -11 -9 -3 -8 -23 3 -79 8 -41 18 -103 22 -138 4 -34
11 -65 15 -68 5 -3 7 -9 4 -14 -4 -7 12 -148 29 -245 3 -16 17 -110 31 -207
14 -98 27 -183 30 -190 5 -14 13 -70 19 -128 3 -31 12 -91 22 -143 12 -65 10
-64 135 -42 89 15 343 54 394 61 17 2 100 15 185 28 210 35 347 56 395 61 73
8 260 37 275 43 8 3 29 6 45 7 51 3 137 16 161 25 12 5 24 7 27 4 2 -3 58 4
123 15 66 10 176 27 246 37 78 10 125 21 121 27 -3 6 -1 7 5 3 14 -8 333 35
327 45 -3 3 7 4 20 1 14 -2 33 -1 42 3 10 4 27 9 38 10 25 3 152 24 187 31 27
5 45 44 31 67 -4 7 -6 23 -4 36 2 14 -1 21 -8 17 -6 -4 -9 -1 -5 7 5 13 -6 90
-71 527 -9 58 -29 186 -46 285 -16 99 -31 196 -34 215 -2 19 -6 53 -9 75 -2
22 -12 81 -20 130 -24 135 -29 168 -30 193 0 12 -4 22 -9 22 -4 0 -5 5 -2 10
4 6 -7 95 -24 198 -33 206 -40 256 -41 290 0 13 -4 21 -9 18 -5 -4 -7 3 -4 14
3 11 2 28 -2 37 -4 10 -8 38 -10 63 -2 25 -6 59 -9 75 -3 17 -8 50 -11 75 -3
25 -12 86 -20 135 -9 50 -16 97 -16 105 -1 16 -30 208 -55 370 -9 52 -17 111
-20 130 -5 40 -23 173 -29 210 -3 14 -7 43 -10 65 -9 57 -25 155 -31 188 -5
24 -10 27 -42 26 -20 -1 -59 -5 -87 -9z m-38 -650 c-1 -4 10 -93 18 -155 2
-11 11 -60 21 -110 9 -49 17 -98 16 -107 0 -10 4 -18 9 -18 6 0 8 -4 4 -10 -3
-5 -1 -37 5 -72 6 -35 13 -83 16 -108 3 -25 12 -83 19 -130 8 -47 15 -100 15
-117 0 -18 4 -33 9 -33 4 0 6 -11 3 -25 -2 -14 0 -25 4 -25 5 0 10 -15 10 -32
1 -18 4 -49 7 -68 3 -19 15 -98 26 -175 11 -77 23 -153 27 -170 4 -16 6 -45 6
-62 0 -18 3 -33 7 -33 4 0 7 -96 6 -212 0 -170 -4 -226 -18 -278 -28 -102 -77
-225 -109 -272 -10 -14 -15 -34 -12 -45 4 -13 3 -14 -3 -5 -7 10 -16 3 -35
-25 -14 -21 -39 -54 -56 -73 -17 -19 -28 -38 -26 -42 3 -5 0 -7 -8 -6 -7 2
-12 -3 -10 -10 1 -8 -2 -11 -7 -8 -5 3 -15 -2 -22 -11 -11 -13 -112 -95 -174
-140 -23 -17 -149 -78 -157 -75 -4 1 -8 -2 -8 -6 0 -5 -6 -9 -12 -9 -7 -1 -51
-12 -98 -26 -47 -14 -110 -30 -140 -36 -68 -14 -395 -19 -469 -8 -84 13 -251
71 -305 106 -28 17 -55 31 -62 31 -6 0 -15 8 -18 17 -6 15 -8 15 -16 3 -8 -13
-10 -12 -10 2 0 9 -20 31 -45 49 -25 18 -45 36 -45 41 0 5 -4 6 -10 3 -5 -3
-10 -2 -10 2 0 5 -14 24 -32 43 -17 19 -46 54 -64 77 -17 23 -35 40 -38 37 -3
-2 -4 -1 -1 2 8 12 -26 64 -43 65 -11 0 -12 2 -4 6 10 4 7 15 -12 46 -25 43
-78 167 -71 167 2 0 -3 19 -11 43 -19 53 -19 51 -50 237 -14 85 -28 162 -32
170 -3 8 -4 23 -3 32 1 10 -7 71 -18 135 -19 115 -51 333 -51 354 0 6 -3 8 -7
6 -5 -3 -8 14 -9 36 -1 58 -8 117 -14 117 -3 0 -5 15 -5 33 -1 17 -4 48 -8 67
-4 19 -13 72 -21 118 -9 45 -17 86 -20 91 -3 4 -8 51 -11 103 -3 52 -11 118
-19 146 -7 28 -10 49 -6 47 3 -2 24 1 46 6 21 5 95 18 164 29 267 43 395 56
404 41 3 -5 9 -29 11 -53 3 -24 10 -68 15 -98 6 -30 12 -73 14 -95 3 -37 18
-124 31 -185 3 -14 8 -45 11 -70 7 -61 33 -233 45 -295 5 -27 12 -79 14 -114
3 -36 12 -96 20 -135 8 -39 17 -93 20 -121 8 -66 15 -115 20 -145 2 -14 11
-74 20 -134 18 -117 47 -226 71 -264 8 -12 12 -22 9 -22 -4 0 8 -20 26 -45 18
-25 36 -45 40 -45 4 0 11 -9 14 -20 3 -11 13 -20 21 -20 8 0 14 -4 14 -10 0
-13 44 -41 68 -43 12 0 20 -6 19 -11 -3 -16 100 -47 175 -53 66 -6 165 8 217
29 14 6 28 12 31 13 31 8 50 18 50 26 0 6 5 7 10 4 6 -3 10 -1 10 5 0 6 4 9 9
5 14 -8 151 132 151 154 0 11 5 21 11 23 7 2 12 18 13 35 0 17 4 29 9 26 4 -2
7 0 7 5 0 5 5 44 10 88 8 61 7 105 -5 194 -8 63 -15 122 -16 130 -2 27 -20
158 -25 182 -2 13 -16 102 -30 198 -14 96 -36 243 -49 325 -13 83 -29 184 -35
225 -7 41 -15 82 -18 90 -6 15 -8 35 -17 130 -2 30 -12 97 -21 149 -8 51 -12
97 -7 102 4 4 22 10 38 13 131 23 299 48 345 52 30 2 64 7 74 10 11 4 42 8 69
9 27 2 51 6 54 9 5 5 32 -16 30 -24z"/>
</g>
</svg>
